<svg xmlns="http://www.w3.org/2000/svg" version="1.1" xmlns:xlink="http://www.w3.org/1999/xlink" xmlns:svgjs="http://svgjs.com/svgjs" width="1280" height="720" preserveAspectRatio="none" viewBox="0 0 1280 720"><g mask="url(&quot;#SvgjsMask1239&quot;)" fill="none"><rect width="1280" height="720" x="0" y="0" fill="rgba(81, 140, 202, 1)"></rect><path d="M 0,338 C 64,284 192,71 320,68 C 448,65 512,305.8 640,323 C 768,340.2 832,149 960,154 C 1088,159 1216,309.2 1280,348L1280 720L0 720z" fill="rgba(0, 0, 0, 1)"></path><path d="M 0,520 C 51.2,538.2 153.6,635.6 256,611 C 358.4,586.4 409.6,392.6 512,397 C 614.4,401.4 665.6,617.4 768,633 C 870.4,648.6 921.6,463.2 1024,475 C 1126.4,486.8 1228.8,648.6 1280,692L1280 720L0 720z" fill="rgba(240, 19, 30, 1)"></path></g><defs><mask id="SvgjsMask1239"><rect width="1280" height="720" fill="#ffffff"></rect></mask></defs></svg>